<?xml version="1.0" standalone="no"?>
<!DOCTYPE svg PUBLIC "-//W3C//DTD SVG 20010904//EN"
 "http://www.w3.org/TR/2001/REC-SVG-20010904/DTD/svg10.dtd">
<svg version="1.0" xmlns="http://www.w3.org/2000/svg"
 width="400.000000pt" height="100.000000pt" viewBox="0 0 400.000000 100.000000"
 preserveAspectRatio="xMidYMid meet">

<g transform="translate(0.000000,100.000000) scale(0.100000,-0.100000)"
fill="#000000" stroke="none">
<path d="M678 916 c-21 -8 -38 -12 -38 -10 0 16 -106 -55 -155 -103 -214 -207
-169 -540 95 -700 121 -73 308 -70 439 8 47 28 132 110 125 121 -3 4 0 8 6 8
6 0 25 30 43 68 l32 67 3 278 3 277 -258 0 c-189 -1 -268 -4 -295 -14z m142
-105 c0 -14 -10 -19 -47 -24 -92 -12 -125 -27 -183 -86 -114 -113 -121 -268
-18 -413 10 -14 10 -20 0 -30 -18 -18 -55 22 -88 95 -36 81 -39 196 -7 269 56
124 173 206 296 208 39 0 47 -3 47 -19z m310 -106 c0 -118 -1 -125 -20 -125
-18 0 -20 8 -22 103 l-3 102 -102 3 c-95 2 -103 4 -103 22 0 19 7 20 125 20
l125 0 0 -125z m-310 -5 c0 -14 -9 -21 -37 -26 -122 -22 -190 -115 -163 -222
6 -25 20 -58 31 -73 19 -28 19 -28 0 -38 -23 -13 -32 -4 -60 60 -36 78 -23
173 32 236 58 66 197 111 197 63z m190 -50 c0 -63 -2 -70 -20 -70 -17 0 -20 7
-20 45 l0 45 -45 0 c-41 0 -45 2 -45 25 0 24 2 25 65 25 l65 0 0 -70z m118
-200 c-10 -132 -97 -248 -213 -285 -69 -21 -188 -17 -253 10 -40 16 -42 19
-27 35 15 16 20 17 48 5 176 -73 371 33 402 218 l6 37 -97 0 -97 0 23 25 c22
23 30 25 118 25 l95 0 -5 -70z m-118 -48 c0 -4 -13 -29 -29 -54 -41 -64 -101
-92 -186 -86 -76 7 -91 14 -73 35 9 11 23 14 53 10 53 -8 113 6 139 32 l20 21
-67 0 c-37 0 -67 3 -67 7 0 3 7 15 17 25 13 15 32 18 105 18 48 0 88 -4 88 -8z"/>
<path d="M1654 786 c-97 -30 -144 -99 -144 -207 0 -79 26 -130 88 -174 41 -28
49 -30 135 -30 56 0 105 5 125 14 l32 13 0 110 0 109 -82 -3 -83 -3 -3 -37 -3
-38 41 0 41 0 -3 -42 -3 -43 -56 -3 c-49 -3 -61 1 -87 23 -55 46 -64 142 -18
194 45 50 116 61 173 25 19 -12 23 -10 47 21 l26 34 -22 15 c-26 17 -100 36
-138 35 -14 0 -43 -6 -66 -13z"/>
<path d="M1980 585 l0 -205 140 0 140 0 0 40 0 40 -95 0 -95 0 0 45 0 45 85 0
85 0 0 35 0 35 -85 0 -85 0 0 45 0 45 90 0 90 0 0 40 0 40 -135 0 -135 0 0
-205z"/>
<path d="M2434 735 c-13 -31 -24 -58 -24 -60 0 -2 -11 -28 -24 -57 -24 -52
-96 -229 -96 -235 0 -2 22 -3 48 -3 48 0 49 1 62 40 l13 40 84 0 85 0 15 -40
c16 -39 17 -40 65 -40 52 0 55 3 35 46 -8 16 -45 104 -82 197 l-69 167 -43 0
c-44 0 -44 0 -69 -55z m116 -192 c0 -13 -90 -19 -102 -7 -6 5 23 89 44 128 9
17 14 12 34 -45 13 -35 24 -70 24 -76z"/>
<path d="M2690 750 l0 -40 55 0 c68 0 67 2 63 -188 l-3 -142 48 0 47 0 0 165
0 165 54 0 54 0 4 35 c2 20 2 38 -1 40 -2 3 -76 5 -163 5 l-158 0 0 -40z"/>
<path d="M3070 585 l0 -205 140 0 140 0 0 40 0 40 -95 0 -95 0 0 45 0 45 85 0
85 0 0 35 0 35 -85 0 -85 0 0 45 0 45 90 0 90 0 0 40 0 40 -135 0 -135 0 0
-205z"/>
<path d="M3430 585 l0 -205 125 0 125 0 0 40 0 40 -80 0 -80 0 0 165 0 165
-45 0 -45 0 0 -205z"/>
<path d="M2120 263 c8 -3 22 -11 30 -17 13 -10 13 -9 1 7 -7 9 -21 17 -30 16
-13 0 -14 -1 -1 -6z"/>
<path d="M2290 266 c0 -9 39 -13 51 -5 10 6 4 9 -18 9 -18 0 -33 -2 -33 -4z"/>
<path d="M2579 238 c5 -30 6 -31 9 -8 2 14 9 28 16 32 7 5 3 8 -10 8 -18 0
-20 -5 -15 -32z"/>
<path d="M2689 253 c-12 -16 -12 -17 1 -7 8 6 22 14 30 17 13 5 12 6 -1 6 -9
1 -23 -7 -30 -16z"/>
<path d="M2773 230 c-1 -25 1 -37 4 -28 2 9 14 19 26 21 l22 4 -22 2 c-14 1
-23 9 -26 24 -2 12 -4 2 -4 -23z"/>
<path d="M2978 230 c2 -22 5 -40 7 -40 2 0 5 18 7 40 2 24 -1 40 -7 40 -6 0
-9 -16 -7 -40z"/>
<path d="M3041 228 c0 -24 3 -36 6 -28 3 8 11 18 17 22 8 5 7 8 -1 8 -20 0
-15 28 5 33 13 4 11 5 -5 6 -21 1 -23 -4 -22 -41z"/>
<path d="M3133 230 c0 -25 2 -35 4 -22 2 12 2 32 0 45 -2 12 -4 2 -4 -23z"/>
<path d="M1997 253 c-9 -9 -9 -51 1 -56 4 -3 7 10 7 29 0 19 0 34 -1 34 0 0
-4 -3 -7 -7z"/>
<path d="M2190 238 c0 -17 3 -19 9 -9 5 8 14 10 22 5 12 -6 12 -5 0 9 -19 23
-31 21 -31 -5z"/>
<path d="M2402 246 c7 -8 15 -12 17 -11 5 6 -10 25 -20 25 -5 0 -4 -6 3 -14z"/>
<path d="M2467 253 c-9 -9 -9 -51 1 -56 4 -3 7 10 7 29 0 19 0 34 -1 34 0 0
-4 -3 -7 -7z"/>
<path d="M2862 240 c0 -14 2 -19 5 -12 2 6 2 18 0 25 -3 6 -5 1 -5 -13z"/>
<path d="M2081 230 c0 -8 4 -22 9 -30 12 -18 12 -2 0 25 -6 13 -9 15 -9 5z"/>
<path d="M2376 225 c-9 -26 -7 -32 5 -12 6 10 9 21 6 23 -2 3 -7 -2 -11 -11z"/>
<path d="M2896 218 c24 -35 34 -35 33 0 -1 18 -3 21 -6 9 -5 -18 -5 -18 -26 0
l-21 18 20 -27z"/>
<path d="M2230 216 c0 -2 7 -9 15 -16 9 -7 15 -8 15 -2 0 5 -7 12 -15 16 -8 3
-15 4 -15 2z"/>
<path d="M2692 194 c9 -9 21 -15 27 -13 6 2 -2 10 -17 17 -25 11 -25 11 -10
-4z"/>
</g>
</svg>
